<?xml version="1.0" encoding="utf-8"?>
<!-- Generator: Adobe Illustrator 24.0.3, SVG Export Plug-In . SVG Version: 6.00 Build 0)  -->
<svg version="1.1" id="Layer_1" xmlns="http://www.w3.org/2000/svg" xmlns:xlink="http://www.w3.org/1999/xlink" x="0px" y="0px"
	 viewBox="0 0 500 500" enable-background="new 0 0 500 500" xml:space="preserve">
<g>
	<path fill="#FF0000" d="M-1398.3,391.5c5-4.1,10-8.1,15-12.2c53.7-43.4,107.3-86.8,161-130.2c0.9-0.7,1.7-1.5,2.7-2.4
		c-1.4-0.7-2.5-1.3-3.6-1.8c-11.8-5.5-23.5-11-35.3-16.5c-4.1-1.9-7.1-4.8-8.1-9.4c-0.6-2.9,0-5.8,0.9-8.6
		c11.2-34.3,22.4-68.6,33.6-102.9c0.4-1.2,0.7-2.3,1.1-3.8c-1,0.1-1.6,0-2.2,0.2c-13.5,2.8-26.9,5.7-40.4,8.6
		c-20.1,4.3-40.2,8.5-60.4,12.7c-1.7,0.3-3.5,0.4-5.2,0.1c-5.1-0.9-8-4.3-10-8.9c-5.9-14-11.8-27.9-17.7-41.8
		c-0.5-1.1-1-2.2-1.8-3.7c-0.8,1-1.2,1.6-1.8,2.1c-25.2,27-50.3,54-75.5,81c-1.4,1.5-2.7,3-4.2,4.3c-4.6,4-11,4.2-15.7,0.6
		c-4.6-3.6-5.7-8.4-4.6-13.9c5.7-29.1,11.4-58.2,17.1-87.3c6.6-33.7,13.1-67.4,19.7-101.1c0.7-3.4,1.2-6.8,1.9-10.7
		c-1.4,0.7-2.3,1.2-3.2,1.7c-13.1,7.6-26.2,15.2-39.4,22.7c-6.2,3.6-12.6,7-18.7,10.8c-6.4,3.9-15.3,2.4-18.9-5.5
		c-0.4-0.8-0.8-1.6-1.2-2.4c-20-39.3-39.9-78.6-59.9-117.8c-0.5-1.1-1.1-2.1-1.9-3.3c-0.7,1.3-1.3,2.3-1.8,3.3
		c-20.1,39.4-40.1,78.7-60.2,118.1c-0.6,1.2-1.2,2.5-2,3.7c-2.6,4.1-6.3,6-11.1,6c-2.9,0-5.3-1.3-7.8-2.7
		c-18.7-10.8-37.4-21.6-56.1-32.5c-1.2-0.7-2.5-1.4-4.1-2.3c0.1,1.4,0.2,2.2,0.3,2.9c4.8,24.8,9.6,49.6,14.4,74.3
		c7.5,38.4,14.9,76.8,22.4,115.2c0.7,3.7,1.5,7.5,1.6,11.2c0.1,6.5-5.4,11.6-11.9,11.9c-4.7,0.2-8.1-2.1-11.2-5.4
		c-25.4-27.3-50.8-54.6-76.2-81.9c-0.9-1-1.8-1.9-2.9-3.1c-0.5,1.1-0.9,1.8-1.2,2.4c-3.5,8.1-6.9,16.3-10.4,24.4
		c-2.8,6.5-5.5,13-8.3,19.5c-2.9,6.5-8.1,9.1-15,7.8c-5.7-1.1-11.4-2.4-17-3.6c-27.6-5.9-55.3-11.8-82.9-17.7c-0.8-0.2-1.6,0-2.6,0
		c3.7,11.5,7.3,22.7,11,33.8c7.9,24.2,15.8,48.5,23.6,72.7c2.9,8.9,0.5,14.4-8.1,18.4c-2.2,1-4.3,2-6.5,3
		c-10.4,4.9-20.8,9.7-31.5,14.7c1,0.9,1.8,1.7,2.7,2.4c3.4,2.8,6.9,5.6,10.3,8.4c40.6,33,81.3,65.9,121.9,98.9
		c14.5,11.8,29.1,23.6,43.6,35.3c2.2,1.8,4,3.8,5,6.5c1.2,3.3,0.7,6.4-0.5,9.6c-4.6,12.4-9.1,24.9-13.6,37.4
		c-2.6,7.2-5.2,14.4-7.9,22c1.4-0.1,2.5,0,3.6-0.2c7.5-1.3,14.9-2.6,22.4-3.9c22.1-3.9,44.2-7.8,66.4-11.7c22.7-4,45.5-8,68.3-11.9
		c2.7-0.5,5.6-1,8.3-0.7c3.1,0.4,5.9,1.4,8.1,2.9v148.9l-23.8,35.8c-0.7,0.5-1.4,1-2,1.7c-0.9,1-1.4,2.1-1.3,3.5c0,1.5,0,3,0,4.5
		c0,1.5,0.5,2.8,1.6,3.9c1.5,1.5,3.3,2.4,5.2,3.2c3.5,1.5,7.1,2.4,10.7,3.1c6.8,1.4,13.8,2,20.7,2.2c5.2,0.1,10.3-0.1,15.5-0.2
		c1.8,0,3.6-0.2,5.3-0.4c3.7-0.5,7.4-1,11.1-1.6c3.7-0.6,7.4-1.6,10.8-3.1c1.9-0.8,3.8-1.8,5.3-3.3c0.9-1,1.5-2.1,1.5-3.5
		c0-1.6,0-3.2,0-4.8c0-1.3-0.4-2.5-1.3-3.3c-0.7-0.6-1.4-1.2-2.2-1.8l-23.8-35.7V441.4c3.7-2.5,8.3-3.7,13-3
		c7.1,1.2,14.2,2.4,21.3,3.6c19.4,3.4,38.8,6.9,58.2,10.3c25.6,4.5,51.2,9.1,76.8,13.6c2.6,0.5,5.2,0.8,8.1,1.2
		c-0.5-1.6-0.9-2.6-1.2-3.7c-6.7-18.6-13.5-37.3-20.2-55.9C-1405.2,400.6-1403.9,396-1398.3,391.5z M-1616.1,629
		c0.2-0.2,0.5-0.4,0.7-0.6C-1615.7,628.6-1615.9,628.8-1616.1,629c-0.2,0.2-0.3,0.3-0.4,0.5C-1616.5,629.3-1616.3,629.1-1616.1,629z
		 M-1616.9,633.7c0.6,0.4,1.1,0.8,1.6,1.1C-1615.9,634.5-1616.4,634.1-1616.9,633.7z M-1615.7,633.7c-0.1-0.1-0.3-0.2-0.4-0.3
		C-1616,633.5-1615.8,633.6-1615.7,633.7c0.6,0.4,1.2,0.7,1.7,1.1C-1614.6,634.4-1615.1,634.1-1615.7,633.7z M-1533.5,633.9
		c-0.7,0.4-1.5,0.8-2.2,1.3C-1535,634.7-1534.3,634.3-1533.5,633.9L-1533.5,633.9z M-1536.4,627.4c0.2,0.1,0.4,0.2,0.6,0.4
		c0.4,0.3,0.9,0.7,1.3,1c0.7,0.5,0.9,1.2,1,2c-0.1-0.7-0.3-1.4-1-2c-0.4-0.3-0.9-0.7-1.3-1C-1536,627.6-1536.2,627.5-1536.4,627.4
		L-1536.4,627.4z M-1546.8,629.9c0.1,0.2,0.1,0.5,0.1,0.7C-1546.7,630.4-1546.7,630.1-1546.8,629.9c-0.2-0.8-0.5-1.7-0.7-2.5
		C-1547.3,628.2-1547.1,629.1-1546.8,629.9z M-1600.5,634.6c1.1,0.5,2.2,0.9,3.3,1.2C-1598.3,635.4-1599.4,635-1600.5,634.6
		c-0.3-0.1-0.6-0.3-0.9-0.4C-1601.1,634.3-1600.8,634.4-1600.5,634.6z M-1603.6,629.9c0,0.1-0.1,0.2-0.1,0.4
		C-1603.7,630.1-1603.7,630-1603.6,629.9c0.2-0.8,0.5-1.7,0.7-2.5C-1603.2,628.2-1603.4,629-1603.6,629.9z M-1591.5,637.1
		c-0.4-0.1-0.8-0.1-1.2-0.2C-1592.3,636.9-1591.9,637-1591.5,637.1c0.9,0.1,1.7,0.3,2.6,0.4
		C-1589.8,637.3-1590.6,637.2-1591.5,637.1z M-1583,641.6c4.5,0.1,9,0.3,13.5,0.1C-1574,641.9-1578.5,641.7-1583,641.6z
		 M-1573.1,641.1c1.8,0,3.6-0.1,5.3-0.1c1.3,0,2.6-0.1,3.9-0.2c-1.3,0.1-2.6,0.1-3.9,0.2C-1569.5,641-1571.3,641-1573.1,641.1z
		 M-1560.2,645.2c2.9-0.3,5.8-0.7,8.6-1.2C-1554.4,644.4-1557.3,644.8-1560.2,645.2z M-1555.7,636.4c0.7-0.2,1.5-0.4,2.2-0.6
		c0.5-0.1,0.9-0.3,1.4-0.4c-0.5,0.1-0.9,0.3-1.4,0.4C-1554.3,636-1555,636.2-1555.7,636.4z M-1550.6,634.1c0.5-0.2,1.1-0.5,1.6-0.8
		C-1549.5,633.5-1550,633.8-1550.6,634.1c-1.8,0.8-3.6,1.3-5.5,1.7C-1554.2,635.4-1552.3,634.8-1550.6,634.1z M-1557.7,640.9
		c-3,0.3-5.9,0.6-8.9,0.7C-1563.6,641.5-1560.6,641.3-1557.7,640.9z"/>
	<path fill="#FFFFFF" d="M-1483.2,307.5c5.2,0,9.8,0.2,13.6,0.5c-2.3-2.9-4.9-6.6-7.9-11c-3-4.4-5.8-8.6-8.6-12.4l-14.9-22
		c-0.5-1-0.8-2-0.7-3.1c0-9.1,0-18.3,0-27.4c0-0.7,0.1-1.3,0.1-1.9c0.7-0.3,1.3-0.5,1.8-0.8c0.9-0.7,1.4-1.6,1.2-2.8
		c0-0.1,0-0.1,0-0.2c-0.2-1.1-0.9-1.9-2.1-2.2c-0.5-0.1-1-0.2-1.6-0.2c-8.8,0-17.5,0-26.3,0c-2.1,0-3.3,0.9-3.7,2.4
		c0,0.1,0,0.1,0,0.2c-0.2,1.5,0.6,2.6,2.7,3.4c0.1,0,0.1,0.1,0.5,0.3v2.5c0,8.8,0,17.7,0,26.5c0,1.5-0.4,2.8-1.1,4.1h0.1l-31.3,44.2
		l-19.7,27.8l-10.6,13.7h-81.1c-14,0-26.9-2.1-38.9-6.3c-11.9-4.2-22.2-9.9-30.8-17.2c-8.6-7.3-15.4-16-20.3-26.1
		c-4.9-10.1-7.4-21-7.4-32.7c0-11.8,2.5-22.5,7.4-32.2c4.9-9.7,11.7-18.1,20.3-25.1c8.6-7,18.9-12.4,30.8-16.2
		c11.9-3.8,24.9-5.7,38.9-5.7h113.2l-32.1,42h-81.1c-6.8,0-13,1-18.8,2.9c-5.8,1.9-10.8,4.6-15,8.1c-4.2,3.5-7.5,7.6-9.9,12.4
		c-2.4,4.8-3.6,10.1-3.6,15.9c0,5.8,1.2,11.1,3.5,15.8c2.3,4.7,5.6,8.8,9.9,12.2c4.3,3.4,9.3,6,15.1,7.8c5.8,1.8,12.1,2.8,18.8,2.8
		h52.3l74.1-104.5c2.9-4,6.5-7.7,10.7-11c0.7-0.5,1.4-1,2.1-1.5c1.5-1.1,3.1-2,4.9-2.8c4.2-1.9,9.1-2.8,14.7-2.8
		c7.6,0,13.9,1.7,18.9,5.2c5.1,3.5,9.4,7.8,12.9,12.9l100.9,146H-1569l30.2-41.5H-1483.2z"/>
</g>
<g>
	<path fill="#FF0000" d="M355.6,334.5c3-2.4,6-4.9,9-7.3c32.1-25.9,64.1-51.9,96.2-77.8c0.5-0.4,1-0.9,1.6-1.4
		c-0.8-0.4-1.5-0.8-2.2-1.1c-7-3.3-14.1-6.6-21.1-9.9c-2.5-1.1-4.3-2.9-4.8-5.6c-0.4-1.7,0-3.4,0.6-5.1c6.7-20.5,13.4-41,20.1-61.5
		c0.2-0.7,0.4-1.4,0.7-2.3c-0.6,0-0.9,0-1.3,0.1c-8,1.7-16.1,3.4-24.1,5.1c-12,2.5-24,5.1-36.1,7.6c-1,0.2-2.1,0.2-3.1,0.1
		c-3.1-0.5-4.8-2.6-5.9-5.3c-3.5-8.3-7-16.7-10.6-25c-0.3-0.7-0.6-1.3-1.1-2.2c-0.5,0.6-0.7,1-1,1.3c-15,16.1-30.1,32.3-45.1,48.4
		c-0.8,0.9-1.6,1.8-2.5,2.6c-2.7,2.4-6.6,2.5-9.4,0.3c-2.8-2.1-3.4-5-2.7-8.3c3.4-17.4,6.8-34.8,10.2-52.2
		c3.9-20.1,7.8-40.3,11.7-60.4c0.4-2,0.7-4.1,1.2-6.4c-0.9,0.4-1.4,0.7-1.9,1c-7.8,4.5-15.7,9.1-23.5,13.6
		c-3.7,2.2-7.5,4.2-11.2,6.5c-3.8,2.4-9.2,1.4-11.3-3.3c-0.2-0.5-0.5-0.9-0.7-1.4c-11.9-23.5-23.9-46.9-35.8-70.4
		c-0.3-0.6-0.7-1.2-1.1-2c-0.4,0.8-0.8,1.4-1.1,2c-12,23.5-24,47-36,70.6c-0.4,0.7-0.7,1.5-1.2,2.2c-1.5,2.4-3.8,3.6-6.6,3.6
		c-1.7,0-3.2-0.8-4.6-1.6c-11.2-6.5-22.3-12.9-33.5-19.4c-0.7-0.4-1.5-0.8-2.4-1.4c0.1,0.9,0.1,1.3,0.2,1.7
		c2.9,14.8,5.7,29.6,8.6,44.4c4.5,22.9,8.9,45.9,13.4,68.8c0.4,2.2,0.9,4.5,1,6.7c0.1,3.9-3.2,7-7.1,7.1c-2.8,0.1-4.8-1.3-6.7-3.2
		c-15.2-16.3-30.3-32.6-45.5-49c-0.5-0.6-1.1-1.2-1.7-1.9c-0.3,0.7-0.5,1.1-0.7,1.5c-2.1,4.9-4.1,9.7-6.2,14.6
		c-1.7,3.9-3.3,7.8-5,11.6c-1.7,3.9-4.8,5.5-9,4.6c-3.4-0.7-6.8-1.4-10.2-2.1c-16.5-3.5-33-7.1-49.6-10.6c-0.5-0.1-1,0-1.6,0
		c2.2,6.9,4.4,13.5,6.5,20.2c4.7,14.5,9.4,29,14.1,43.5c1.7,5.3,0.3,8.6-4.9,11c-1.3,0.6-2.6,1.2-3.9,1.8
		c-6.2,2.9-12.4,5.8-18.8,8.8c0.6,0.5,1.1,1,1.6,1.4c2,1.7,4.1,3.3,6.2,5c24.3,19.7,48.6,39.4,72.9,59.1c8.7,7,17.4,14.1,26.1,21.1
		c1.3,1.1,2.4,2.3,3,3.9c0.7,2,0.4,3.8-0.3,5.7c-2.7,7.4-5.4,14.9-8.1,22.3c-1.6,4.3-3.1,8.6-4.7,13.2c0.9,0,1.5,0,2.2-0.1
		c4.5-0.8,8.9-1.5,13.4-2.3c13.2-2.3,26.4-4.7,39.7-7c13.6-2.4,27.2-4.8,40.8-7.1c1.6-0.3,3.3-0.6,4.9-0.4c1.9,0.2,3.5,0.8,4.9,1.7
		v89l-14.2,21.4c-0.4,0.3-0.9,0.6-1.2,1c-0.5,0.6-0.8,1.3-0.8,2.1c0,0.9,0,1.8,0,2.7c0,0.9,0.3,1.7,0.9,2.3c0.9,0.9,2,1.5,3.1,1.9
		c2.1,0.9,4.2,1.4,6.4,1.8c4.1,0.8,8.2,1.2,12.4,1.3c3.1,0.1,6.2,0,9.3-0.1c1.1,0,2.1-0.1,3.2-0.3c2.2-0.3,4.4-0.6,6.6-1
		c2.2-0.4,4.4-1,6.5-1.8c1.2-0.5,2.3-1.1,3.1-2c0.6-0.6,0.9-1.3,0.9-2.1c0-1,0-1.9,0-2.9c0-0.8-0.2-1.5-0.8-2
		c-0.4-0.4-0.8-0.7-1.3-1.1l-14.2-21.4v-88.8c2.2-1.5,5-2.2,7.8-1.8c4.2,0.7,8.5,1.4,12.7,2.2c11.6,2,23.2,4.1,34.8,6.2
		c15.3,2.7,30.6,5.4,45.9,8.1c1.5,0.3,3.1,0.5,4.8,0.7c-0.3-0.9-0.5-1.6-0.7-2.2c-4-11.1-8-22.3-12-33.4
		C351.4,340,352.2,337.3,355.6,334.5z"/>
	<path fill="#FFFFFF" d="M304.9,284.3c3.1,0,5.8,0.1,8.2,0.3c-1.4-1.7-2.9-3.9-4.7-6.6c-1.8-2.6-3.5-5.1-5.1-7.4l-8.9-13.2
		c-0.3-0.6-0.5-1.2-0.4-1.9c0-5.5,0-10.9,0-16.4c0-0.4,0-0.8,0.1-1.1c0.4-0.2,0.8-0.3,1.1-0.5c0.5-0.4,0.8-1,0.7-1.7
		c0,0,0-0.1,0-0.1c-0.1-0.7-0.5-1.2-1.2-1.3c-0.3-0.1-0.6-0.1-0.9-0.1c-5.2,0-10.5,0-15.7,0c-1.2,0-2,0.5-2.2,1.5c0,0,0,0.1,0,0.1
		c-0.1,0.9,0.4,1.6,1.6,2.1c0,0,0.1,0,0.3,0.2v1.5c0,5.3,0,10.6,0,15.8c0,0.9-0.2,1.7-0.7,2.4h0l-18.7,26.4L246.4,301l-6.3,8.2
		h-48.5c-8.4,0-16.1-1.2-23.2-3.8c-7.1-2.5-13.2-5.9-18.4-10.3c-5.1-4.4-9.2-9.6-12.1-15.6c-2.9-6-4.4-12.5-4.4-19.5
		c0-7,1.5-13.4,4.4-19.3c2.9-5.8,7-10.8,12.1-15c5.1-4.2,11.3-7.4,18.4-9.7c7.1-2.3,14.9-3.4,23.2-3.4h67.6l-19.2,25.1h-48.5
		c-4,0-7.8,0.6-11.2,1.7c-3.5,1.1-6.4,2.8-8.9,4.8c-2.5,2.1-4.5,4.5-5.9,7.4c-1.4,2.9-2.2,6.1-2.2,9.5c0,3.5,0.7,6.6,2.1,9.4
		c1.4,2.8,3.4,5.3,5.9,7.3c2.5,2,5.6,3.6,9,4.7c3.5,1.1,7.2,1.7,11.2,1.7h31.3l44.3-62.4c1.7-2.4,3.9-4.6,6.4-6.6
		c0.4-0.3,0.8-0.6,1.2-0.9c0.9-0.6,1.9-1.2,2.9-1.7c2.5-1.1,5.4-1.7,8.8-1.7c4.5,0,8.3,1,11.3,3.1c3,2.1,5.6,4.6,7.7,7.7l60.3,87.3
		H253.6l18-24.8H304.9z"/>
</g>
<rect x="-2024.7" y="-163.9" fill="#FF0000" width="52" height="52"/>
<text transform="matrix(1 0 0 1 -1949.7318 -128.41)" font-family="'MyriadPro-Regular'" font-size="33.7559px">FF0000</text>
</svg>
