<svg width="20" height="20" viewBox="0 0 20 20" fill="none" xmlns="http://www.w3.org/2000/svg">
<path fill-rule="evenodd" clip-rule="evenodd" d="M16.6667 5.83333H9.16671C8.70671 5.83333 8.33337 5.46 8.33337 5V3.33333C8.33337 2.87333 8.70671 2.5 9.16671 2.5H16.6667C17.1267 2.5 17.5 2.87333 17.5 3.33333V5C17.5 5.46 17.1267 5.83333 16.6667 5.83333Z" stroke="#323232" stroke-linecap="round" stroke-linejoin="round"/>
<path fill-rule="evenodd" clip-rule="evenodd" d="M16.6667 11.6667H9.16671C8.70671 11.6667 8.33337 11.2933 8.33337 10.8333V9.16667C8.33337 8.70667 8.70671 8.33333 9.16671 8.33333H16.6667C17.1267 8.33333 17.5 8.70667 17.5 9.16667V10.8333C17.5 11.2933 17.1267 11.6667 16.6667 11.6667Z" stroke="#323232" stroke-linecap="round" stroke-linejoin="round"/>
<path fill-rule="evenodd" clip-rule="evenodd" d="M16.6667 17.5H9.16671C8.70671 17.5 8.33337 17.1267 8.33337 16.6667V15C8.33337 14.54 8.70671 14.1667 9.16671 14.1667H16.6667C17.1267 14.1667 17.5 14.54 17.5 15V16.6667C17.5 17.1267 17.1267 17.5 16.6667 17.5Z" stroke="#323232" stroke-linecap="round" stroke-linejoin="round"/>
<path fill-rule="evenodd" clip-rule="evenodd" d="M5 5.83333H3.33333C2.87333 5.83333 2.5 5.46 2.5 5V3.33333C2.5 2.87333 2.87333 2.5 3.33333 2.5H5C5.46 2.5 5.83333 2.87333 5.83333 3.33333V5C5.83333 5.46 5.46 5.83333 5 5.83333Z" stroke="#323232" stroke-linecap="round" stroke-linejoin="round"/>
<path fill-rule="evenodd" clip-rule="evenodd" d="M5 11.6667H3.33333C2.87333 11.6667 2.5 11.2933 2.5 10.8333V9.16667C2.5 8.70667 2.87333 8.33333 3.33333 8.33333H5C5.46 8.33333 5.83333 8.70667 5.83333 9.16667V10.8333C5.83333 11.2933 5.46 11.6667 5 11.6667Z" stroke="#323232" stroke-linecap="round" stroke-linejoin="round"/>
<path fill-rule="evenodd" clip-rule="evenodd" d="M5 17.5H3.33333C2.87333 17.5 2.5 17.1267 2.5 16.6667V15C2.5 14.54 2.87333 14.1667 3.33333 14.1667H5C5.46 14.1667 5.83333 14.54 5.83333 15V16.6667C5.83333 17.1267 5.46 17.5 5 17.5Z" stroke="#323232" stroke-linecap="round" stroke-linejoin="round"/>
</svg>
